<?xml version="1.0" standalone="no"?>
<!DOCTYPE svg PUBLIC "-//W3C//DTD SVG 20010904//EN"
 "http://www.w3.org/TR/2001/REC-SVG-20010904/DTD/svg10.dtd">
<svg version="1.0" xmlns="http://www.w3.org/2000/svg"
 width="512.000000pt" height="512.000000pt" viewBox="0 0 512.000000 512.000000"
 preserveAspectRatio="xMidYMid meet">
<metadata>
Created by potrace 1.14, written by Peter Selinger 2001-2017
</metadata>
<g transform="translate(0.000000,512.000000) scale(0.100000,-0.100000)"
fill="#000000" stroke="none">
<path d="M2708 4745 c-2 -2 -52 -6 -113 -10 -60 -4 -119 -9 -130 -11 -11 -2
-89 -7 -174 -10 -222 -8 -257 -13 -331 -48 -140 -64 -250 -283 -237 -471 3
-44 9 -89 12 -100 6 -20 2 -20 -187 -20 -167 1 -272 6 -393 20 -187 22 -613
22 -721 1 -12 -3 -37 -7 -57 -10 -98 -16 -209 -69 -260 -125 -43 -48 -60 -102
-51 -168 8 -67 8 -143 -1 -403 -21 -596 -28 -1019 -28 -1590 0 -496 8 -982 18
-1056 21 -169 226 -279 575 -309 140 -12 502 -16 1645 -20 974 -2 1364 -7
1595 -20 517 -28 661 -25 819 20 111 32 217 109 278 200 101 154 130 414 107
945 -11 248 -11 699 0 890 15 246 9 836 -9 994 -2 17 -6 66 -10 109 -13 158
-72 315 -148 395 -86 89 -220 141 -432 167 -27 3 -61 8 -75 10 -14 2 -77 7
-140 10 -63 4 -133 9 -155 11 -22 3 -208 7 -414 9 -206 3 -376 7 -378 8 -4 5
-11 64 -18 158 -12 172 -66 294 -155 350 -22 14 -136 60 -143 58 -1 -1 -22 2
-47 6 -46 7 -237 14 -242 10z m286 -284 c36 -34 56 -102 63 -213 5 -80 3 -98
-8 -99 -27 -3 -85 -6 -219 -13 -74 -4 -162 -9 -195 -11 -102 -7 -246 -15 -335
-20 -47 -2 -128 -7 -181 -10 l-95 -6 -27 53 c-46 91 -30 183 44 257 70 69 87
72 410 75 159 2 292 5 295 8 3 3 54 5 114 4 99 -1 110 -3 134 -25z m1381 -565
c144 -24 283 -66 322 -98 27 -22 -158 -138 -332 -208 -11 -4 -69 -27 -130 -50
-128 -50 -229 -96 -265 -120 -14 -9 -50 -30 -80 -47 -30 -17 -80 -45 -110 -63
-129 -77 -321 -164 -440 -198 -46 -14 -132 -30 -200 -37 -30 -4 -65 -13 -77
-20 -19 -13 -24 -11 -55 25 -47 54 -128 106 -206 131 -56 18 -91 21 -207 21
-266 -1 -476 -55 -567 -146 -10 -9 -26 -18 -35 -18 -40 -1 -542 116 -658 154
-142 47 -258 100 -282 129 -14 16 -38 30 -60 34 -24 4 -77 35 -143 83 -186
135 -223 159 -325 213 -118 62 -175 99 -155 99 8 0 109 3 225 5 219 5 443 12
630 20 61 2 178 7 260 10 83 3 188 8 235 10 47 2 153 7 235 10 258 10 505 21
700 30 50 2 155 7 235 10 80 4 181 8 225 10 44 2 166 6 270 10 105 4 191 8
193 10 7 6 758 -3 797 -9z m474 -368 c14 -101 -1 -810 -24 -1073 -2 -27 -7
-90 -11 -140 -3 -49 -8 -110 -10 -135 -11 -140 -5 -298 17 -500 24 -222 28
-361 15 -548 -8 -118 -24 -174 -71 -248 -18 -28 -36 -71 -40 -95 -9 -60 -49
-125 -88 -146 -20 -10 -59 -18 -102 -19 -38 -1 -106 -5 -151 -9 l-81 -8 0 34
c-1 43 -13 277 -18 349 -4 50 -7 111 -20 375 -6 108 -6 504 -1 585 3 36 8 108
11 160 3 52 8 109 10 125 20 170 26 712 11 900 -5 61 -10 123 -10 138 -1 28 5
31 149 91 207 87 369 172 390 207 10 16 17 4 24 -43z m-4460 -50 c54 -30 231
-146 241 -158 3 -3 50 -37 105 -74 55 -38 105 -75 112 -84 12 -14 11 -176 -2
-232 -3 -14 -7 -35 -9 -47 -3 -13 -12 -58 -20 -100 -24 -116 -24 -117 -32
-190 -10 -99 -6 -235 11 -393 26 -233 26 -691 0 -970 -2 -19 -6 -84 -10 -145
-4 -60 -9 -117 -10 -126 -4 -21 -18 -248 -17 -272 1 -15 -5 -17 -36 -12 -20 3
-52 8 -70 11 -49 6 -151 42 -197 69 -155 92 -206 236 -200 570 3 125 6 188 21
360 2 28 6 221 8 430 5 422 13 786 23 1095 3 113 6 226 7 253 0 26 5 47 10 47
5 0 34 -14 65 -32z m3667 -399 c12 -158 7 -487 -11 -714 -4 -47 -11 -154 -21
-310 -11 -180 -6 -644 11 -955 2 -30 6 -120 10 -200 3 -80 8 -173 10 -207 l4
-63 -67 5 c-37 2 -121 7 -187 10 -66 3 -160 9 -210 12 -49 3 -652 6 -1340 7
l-1250 1 1 50 c1 49 12 217 19 285 2 19 6 76 10 125 3 50 8 106 10 125 18 179
24 614 10 800 -15 205 -11 314 20 585 21 184 28 271 29 342 1 35 2 63 4 63 2
0 47 -15 100 -34 118 -41 313 -91 572 -146 107 -22 204 -45 215 -49 12 -5 27
-29 37 -58 35 -99 86 -150 182 -178 47 -14 182 -20 246 -11 124 18 155 21 290
31 220 16 325 76 345 197 6 36 9 38 43 39 47 1 79 6 172 25 189 39 372 117
656 279 43 24 79 43 81 41 1 -1 6 -45 9 -97z m-1292 -115 c48 -25 76 -60 79
-98 l2 -29 -70 -3 c-38 -2 -80 -5 -91 -8 -33 -7 -252 -20 -318 -19 -65 2 -83
14 -125 85 l-22 37 53 15 c67 19 101 24 213 32 50 4 91 8 93 9 2 1 35 2 75 1
51 -1 84 -7 111 -22z"/>
</g>
</svg>
